<?xml version="1.0" encoding="UTF-8" standalone="no"?>
<svg
   width="40"
   height="40"
   fill="currentColor"
   viewBox="0 0 896 1024.0001"
   version="1.1"
   id="svg1702"
   sodipodi:docname="Instagram_icon.svg"
   xmlns:inkscape="http://www.inkscape.org/namespaces/inkscape"
   xmlns:sodipodi="http://sodipodi.sourceforge.net/DTD/sodipodi-0.dtd"
   xmlns="http://www.w3.org/2000/svg"
   xmlns:svg="http://www.w3.org/2000/svg">
  <defs
     id="defs1706" />
 
  <g
     id="g1712"
     transform="translate(-728.48853,201.42624)">
    <path
       d="m 1176.5456,179.30346 c -72.6452,0 -131.241,58.60895 -131.241,131.27033 0,72.66139 58.5958,131.27034 131.241,131.27034 72.6452,0 131.2411,-58.60895 131.2411,-131.27034 0,-72.66138 -58.5959,-131.27033 -131.2411,-131.27033 z m 0,216.6132 c -46.9452,0 -85.3238,-38.27291 -85.3238,-85.34287 0,-47.06995 38.2644,-85.34285 85.3238,-85.34285 47.0595,0 85.3238,38.2729 85.3238,85.34285 0,47.06996 -38.3785,85.34287 -85.3238,85.34287 z m 167.221,-221.98282 c 0,17.02287 -13.7067,30.61831 -30.6115,30.61831 -17.0191,0 -30.6115,-13.70969 -30.6115,-30.61831 0,-16.90863 13.7066,-30.61833 30.6115,-30.61833 16.9048,0 30.6115,13.7097 30.6115,30.61833 z m 86.9229,31.0753 c -1.9418,-41.01483 -11.308,-77.34553 -41.3483,-107.278369 -29.9262,-29.932835 -66.2488,-39.301127 -107.2545,-41.357581 -42.2621,-2.399197 -168.9343,-2.399197 -211.1964,0 -40.8915,1.942207 -77.21405,11.310499 -107.25443,41.243335 -30.04038,29.932835 -39.29236,66.263535 -41.34835,107.278375 -2.39867,42.27156 -2.39867,168.97199 0,211.24355 1.94177,41.01484 11.30797,77.34554 41.34835,107.27837 30.04038,29.93283 66.24873,39.30113 107.25443,41.35758 42.2621,2.39919 168.9343,2.39919 211.1964,0 41.0057,-1.9422 77.3283,-11.3105 107.2545,-41.35758 29.9261,-29.93283 39.2923,-66.26353 41.3483,-107.27837 2.3987,-42.27156 2.3987,-168.85774 0,-211.12931 z m -54.5981,256.48556 c -8.9093,22.39249 -26.1568,39.64386 -48.6585,48.66942 -33.6955,13.36695 -113.6509,10.28227 -150.8873,10.28227 -37.2363,0 -117.306,2.97043 -150.8872,-10.28227 -22.3875,-8.91131 -39.63502,-26.16268 -48.65856,-48.66942 -13.36397,-33.703 -10.27998,-113.67623 -10.27998,-150.92091 0,-37.24467 -2.96977,-117.33214 10.27998,-150.92089 8.90932,-22.3925 26.15686,-39.64387 48.65856,-48.66942 33.6955,-13.366955 113.6509,-10.28227 150.8872,-10.28227 37.2364,0 117.306,-2.970439 150.8873,10.28227 22.3875,8.9113 39.635,26.16267 48.6585,48.66942 13.364,33.703 10.28,113.67622 10.28,150.92089 0,37.24468 3.084,117.33215 -10.28,150.92091 z"
       id="path1700"
       style="stroke-width:1.14234" />
    <ellipse
       style="fill:none;fill-opacity:1;stroke:currentColor;stroke-width:27.8385"
       id="path1708"
       cx="1176.4885"
       cy="310.57379"
       rx="498.08075"
       ry="498.08078" />
  </g>
</svg>
