<?xml version="1.0" encoding="UTF-8" standalone="no"?>
<svg
   viewBox="0 0 40.367344 40.367352"
   version="1.1"
   id="svg4"
   sodipodi:docname="twitter.svg"
   width="40"
   height="40"
   fill="currentColor"
   xmlns:inkscape="http://www.inkscape.org/namespaces/inkscape"
   xmlns:sodipodi="http://sodipodi.sourceforge.net/DTD/sodipodi-0.dtd"
   xmlns="http://www.w3.org/2000/svg"
   xmlns:svg="http://www.w3.org/2000/svg">
  <defs
     id="defs8" />
  <g
     id="g901"
     transform="translate(-324.31489,-110.38278)">
    <path
       d="m 354.42891,125.55079 c 0.0158,0.21875 0.0158,0.43754 0.0158,0.65627 0,6.67186 -5.15544,14.35939 -14.57808,14.35939 -2.90294,0 -5.59963,-0.82815 -7.86805,-2.2656 0.41246,0.0469 0.80899,0.0624 1.23732,0.0624 2.39526,0 4.60026,-0.79685 6.36105,-2.15623 -2.25255,-0.0469 -4.14025,-1.50001 -4.79065,-3.50002 0.3173,0.0468 0.63453,0.0781 0.96768,0.0781 0.46002,0 0.92008,-0.0625 1.34835,-0.17184 -2.34771,-0.46879 -4.10856,-2.50001 -4.10856,-4.95314 v -0.0624 c 0.68208,0.375 1.4753,0.60937 2.31598,0.64058 -1.38009,-0.90626 -2.28423,-2.45312 -2.28423,-4.20313 0,-0.93748 0.25375,-1.79686 0.69794,-2.54687 2.52223,3.0625 6.3135,5.06247 10.56474,5.28126 -0.0793,-0.37501 -0.1269,-0.76559 -0.1269,-1.15623 0,-2.78128 2.28428,-5.04688 5.12375,-5.04688 1.47524,0 2.80772,0.60938 3.74366,1.59375 1.15797,-0.21874 2.26837,-0.64064 3.25192,-1.21875 -0.38076,1.17191 -1.18975,2.15628 -2.25255,2.78124 1.03111,-0.10933 2.03048,-0.39064 2.9505,-0.78122 -0.69786,0.99996 -1.57037,1.89055 -2.56974,2.60933 z"
       id="path2"
       style="stroke-width:0.0484607" />
    <circle
       style="fill:none;fill-opacity:0.22093;stroke:currentColor;stroke-width:1;stroke-dasharray:none"
       id="path343"
       cx="344.49857"
       cy="130.56645"
       r="19.683674" />
  </g>
</svg>
